<?xml version="1.0" encoding="UTF-8" standalone="no"?>
<svg
   xmlns:dc="http://purl.org/dc/elements/1.1/"
   xmlns:cc="http://creativecommons.org/ns#"
   xmlns:rdf="http://www.w3.org/1999/02/22-rdf-syntax-ns#"
   xmlns:svg="http://www.w3.org/2000/svg"
   xmlns="http://www.w3.org/2000/svg"
   xmlns:sodipodi="http://sodipodi.sourceforge.net/DTD/sodipodi-0.dtd"
   xmlns:inkscape="http://www.inkscape.org/namespaces/inkscape"
   version="1.1"
   id="Capa_1"
   x="0px"
   y="0px"
   viewBox="0 0 298 298"
   style="enable-background:new 0 0 298 298;"
   xml:space="preserve"
   sodipodi:docname="KnightBlack.svg"
   inkscape:version="1.0.1 (3bc2e813f5, 2020-09-07)"><metadata
   id="metadata41"><rdf:RDF><cc:Work
       rdf:about=""><dc:format>image/svg+xml</dc:format><dc:type
         rdf:resource="http://purl.org/dc/dcmitype/StillImage" /></cc:Work></rdf:RDF></metadata><defs
   id="defs39" /><sodipodi:namedview
   pagecolor="#ffffff"
   bordercolor="#666666"
   borderopacity="1"
   objecttolerance="10"
   gridtolerance="10"
   guidetolerance="10"
   inkscape:pageopacity="0"
   inkscape:pageshadow="2"
   inkscape:window-width="2560"
   inkscape:window-height="1361"
   id="namedview37"
   showgrid="false"
   inkscape:zoom="2.466443"
   inkscape:cx="149"
   inkscape:cy="149"
   inkscape:window-x="-9"
   inkscape:window-y="-9"
   inkscape:window-maximized="1"
   inkscape:current-layer="Capa_1" />
<g
   id="g4"
   inkscape:export-xdpi="96"
   inkscape:export-ydpi="96">
	<path
   d="M210.952,116c14.912,0,27.037-12.088,27.037-27s-10.945-25.013-26.964-30.666c-11.333-4-18.018-10.823-23.009-19.412   C183.025,30.333,172.025,17,157.525,17c-5.832,0-19.798,0-19.798,0V0c-107,40.03-72.369,184-72.369,184h21.369v14h-6.369   c-4.418,0-8.631,3.582-8.631,8v1c0,3.289,2.302,6.111,5.14,7.341c-8.77,15.05-1.419,29.775,0.761,33.659h-5.271   c-4.418,0-8.631,3.582-8.631,8v18c0,4.418,4,8,8,8v16h132v-16.069c4-0.493,7-3.853,7-7.931v-18c0-4.418-2.951-8-7.369-8h-4.27   c2.181-3.884,8.902-18.609,0.13-33.659c2.838-1.23,4.508-4.052,4.508-7.341v-1c0-4.418-2.951-8-7.369-8h-7.631v-14h24.132   c-16.501-54-66.334-83-66.334-83h40.182C191.146,109.889,200.351,116,210.952,116z"
   id="path2" />
</g>
<g
   id="g6">
</g>
<g
   id="g8">
</g>
<g
   id="g10">
</g>
<g
   id="g12">
</g>
<g
   id="g14">
</g>
<g
   id="g16">
</g>
<g
   id="g18">
</g>
<g
   id="g20">
</g>
<g
   id="g22">
</g>
<g
   id="g24">
</g>
<g
   id="g26">
</g>
<g
   id="g28">
</g>
<g
   id="g30">
</g>
<g
   id="g32">
</g>
<g
   id="g34">
</g>
</svg>
