<?xml version="1.0" encoding="UTF-8" standalone="no"?>
<svg
   xmlns:dc="http://purl.org/dc/elements/1.1/"
   xmlns:cc="http://creativecommons.org/ns#"
   xmlns:rdf="http://www.w3.org/1999/02/22-rdf-syntax-ns#"
   xmlns:svg="http://www.w3.org/2000/svg"
   xmlns="http://www.w3.org/2000/svg"
   xmlns:sodipodi="http://sodipodi.sourceforge.net/DTD/sodipodi-0.dtd"
   xmlns:inkscape="http://www.inkscape.org/namespaces/inkscape"
   version="1.1"
   id="Capa_1"
   x="0px"
   y="0px"
   viewBox="0 0 298 298"
   style="enable-background:new 0 0 298 298;"
   xml:space="preserve"
   sodipodi:docname="King.svg"
   inkscape:version="1.0.1 (3bc2e813f5, 2020-09-07)"><metadata
   id="metadata41"><rdf:RDF><cc:Work
       rdf:about=""><dc:format>image/svg+xml</dc:format><dc:type
         rdf:resource="http://purl.org/dc/dcmitype/StillImage" /></cc:Work></rdf:RDF></metadata><defs
   id="defs39" /><sodipodi:namedview
   pagecolor="#ffffff"
   bordercolor="#666666"
   borderopacity="1"
   objecttolerance="10"
   gridtolerance="10"
   guidetolerance="10"
   inkscape:pageopacity="0"
   inkscape:pageshadow="2"
   inkscape:window-width="2560"
   inkscape:window-height="1361"
   id="namedview37"
   showgrid="false"
   inkscape:zoom="2.466443"
   inkscape:cx="149"
   inkscape:cy="149"
   inkscape:window-x="-9"
   inkscape:window-y="-9"
   inkscape:window-maximized="1"
   inkscape:current-layer="Capa_1" />
<g
   id="g4"
   transform="matrix(1.1797947,0,0,0.99990808,-36.85811,0.02739118)"
   style="fill:#ffffff;stroke:#000000;stroke-opacity:1;stroke-width:7.36557621;stroke-miterlimit:4;stroke-dasharray:none">
	<path
   d="m 197.333,256 h -1.641 c 1.878,-3.337 7.061,-14.536 -0.605,-25.6 -7.554,-10.905 -21.491,-39.547 -20.904,-64.401 4.409,-0.01 7.816,-3.587 7.816,-7.999 v -1 c 0,-4.418 -3.582,-8 -8,-8 4.418,0 8,-3.582 8,-8 v -1 c 0,-4.418 -3.249,-8 -7.667,-8 h -3.55 c -1.006,-16.142 1.307,-29.861 4.798,-40.724 1.121,-3.487 2.432,-6.186 3.752,-8.276 h 2 c 4.418,0 7.667,-3.582 7.667,-8 v -1 c 0,-4.343 -3.463,-7.87 -7.777,-7.988 C 179.087,52.771 169,42.203 156,39.363 V 27 h 12 V 12 H 156 V 0 h -15 v 12 h -12 v 15 h 12 V 39.595 C 129,42.745 119.197,53.107 117.112,66 h -0.779 C 111.915,66 108,69.582 108,74 v 1 c 0,4.418 3.915,8 8.333,8 h 3 c 1.32,2.091 2.631,4.789 3.752,8.276 3.491,10.862 5.804,24.582 4.798,40.724 h -4.55 c -4.418,0 -8.333,3.582 -8.333,8 v 1 c 0,4.418 3.582,8 8,8 -4.418,0 -8,3.582 -8,8 v 1 c 0,4.418 3.915,8 8.333,8 h 1.053 c 0.588,24.855 -13.183,53.495 -20.737,64.4 -7.664,11.063 -2.482,22.263 -0.604,25.6 h -1.711 c -4.418,0 -8.333,3.582 -8.333,8 v 9 c 0,3.727 3,6.849 6,7.737 V 298 h 100 v -17.263 c 4,-0.889 6,-4.011 6,-7.737 v -9 c -0.001,-4.418 -3.25,-8 -7.668,-8 z"
   id="path2"
   style="fill:#ffffff;stroke:#000000;stroke-opacity:1;stroke-width:7.36557621;stroke-miterlimit:4;stroke-dasharray:none" />
</g>
<g
   id="g6">
</g>
<g
   id="g8">
</g>
<g
   id="g10">
</g>
<g
   id="g12">
</g>
<g
   id="g14">
</g>
<g
   id="g16">
</g>
<g
   id="g18">
</g>
<g
   id="g20">
</g>
<g
   id="g22">
</g>
<g
   id="g24">
</g>
<g
   id="g26">
</g>
<g
   id="g28">
</g>
<g
   id="g30">
</g>
<g
   id="g32">
</g>
<g
   id="g34">
</g>
</svg>
