<?xml version="1.0" encoding="UTF-8" standalone="no"?>
<svg
   xmlns:dc="http://purl.org/dc/elements/1.1/"
   xmlns:cc="http://creativecommons.org/ns#"
   xmlns:rdf="http://www.w3.org/1999/02/22-rdf-syntax-ns#"
   xmlns:svg="http://www.w3.org/2000/svg"
   xmlns="http://www.w3.org/2000/svg"
   xmlns:sodipodi="http://sodipodi.sourceforge.net/DTD/sodipodi-0.dtd"
   xmlns:inkscape="http://www.inkscape.org/namespaces/inkscape"
   version="1.1"
   id="Capa_1"
   x="0px"
   y="0px"
   viewBox="0 0 297 297"
   style="enable-background:new 0 0 297 297;"
   xml:space="preserve"
   sodipodi:docname="Pawn.svg"
   inkscape:version="1.0.1 (3bc2e813f5, 2020-09-07)"><metadata
   id="metadata1569"><rdf:RDF><cc:Work
       rdf:about=""><dc:format>image/svg+xml</dc:format><dc:type
         rdf:resource="http://purl.org/dc/dcmitype/StillImage" /></cc:Work></rdf:RDF></metadata><defs
   id="defs1567" /><sodipodi:namedview
   pagecolor="#ffffff"
   bordercolor="#666666"
   borderopacity="1"
   objecttolerance="10"
   gridtolerance="10"
   guidetolerance="10"
   inkscape:pageopacity="0"
   inkscape:pageshadow="2"
   inkscape:window-width="2560"
   inkscape:window-height="1361"
   id="namedview1565"
   showgrid="false"
   inkscape:zoom="2.4747475"
   inkscape:cx="148.5"
   inkscape:cy="148.5"
   inkscape:window-x="-9"
   inkscape:window-y="-9"
   inkscape:window-maximized="1"
   inkscape:current-layer="Capa_1" />
<g
   id="g1532"
   inkscape:export-xdpi="96"
   inkscape:export-ydpi="96"
   style="fill:#ffffff;stroke:#000000;stroke-opacity:1;stroke-width:8;stroke-miterlimit:4;stroke-dasharray:none">
	<path
   d="M223.333,247h-5.926c2.607-3.811,10.798-18.024-0.727-32.248c-13.334-16.46-39.863-65.748-27.324-98.752h0.977   c4.418,0,7.667-3.582,7.667-8v-1c0-4.418-3.249-8-7.667-8h-1.225c10.917-10.466,17.725-25.184,17.725-41.5   c0-31.756-25.744-57.5-57.5-57.5s-57.5,25.744-57.5,57.5c0,16.316,6.808,31.034,17.725,41.5h-2.225c-4.418,0-8.333,3.582-8.333,8v1   c0,4.418,3.915,8,8.333,8h1.979c12.539,33.004-13.99,82.292-27.324,98.752c-11.524,14.224-3.334,28.437-0.727,32.248h-6.928   c-4.418,0-8.333,3.582-8.333,8v18c0,4.418,3.915,8,8.333,8H75v16h148v-16c5,0,8-3.582,8-8v-18C231,250.582,227.751,247,223.333,247   z"
   id="path1530"
   style="fill:#ffffff;stroke:#000000;stroke-opacity:1;stroke-width:8;stroke-miterlimit:4;stroke-dasharray:none" />
</g>
<g
   id="g1534">
</g>
<g
   id="g1536">
</g>
<g
   id="g1538">
</g>
<g
   id="g1540">
</g>
<g
   id="g1542">
</g>
<g
   id="g1544">
</g>
<g
   id="g1546">
</g>
<g
   id="g1548">
</g>
<g
   id="g1550">
</g>
<g
   id="g1552">
</g>
<g
   id="g1554">
</g>
<g
   id="g1556">
</g>
<g
   id="g1558">
</g>
<g
   id="g1560">
</g>
<g
   id="g1562">
</g>
</svg>
